<svg width="45" height="45" viewBox="0 0 45 45" fill="none" xmlns="http://www.w3.org/2000/svg">
<circle cx="22.0563" cy="22.0563" r="21.5563" stroke="white"/>
<path d="M28.4145 9.89243L25.3133 9.88721C21.8292 9.88721 19.5776 12.3116 19.5776 16.064V18.9119H16.4594C16.19 18.9119 15.9718 19.1412 15.9718 19.424V23.5503C15.9718 23.833 16.1902 24.062 16.4594 24.062H19.5776V34.474C19.5776 34.7568 19.7958 34.9858 20.0652 34.9858H24.1335C24.4029 34.9858 24.6211 34.7565 24.6211 34.474V24.062H28.267C28.5364 24.062 28.7546 23.833 28.7546 23.5503L28.7561 19.424C28.7561 19.2882 28.7046 19.1581 28.6133 19.0621C28.522 18.966 28.3976 18.9119 28.2682 18.9119H24.6211V16.4977C24.6211 15.3373 24.8846 14.7483 26.3249 14.7483L28.414 14.7475C28.6832 14.7475 28.9014 14.5182 28.9014 14.2357V10.4042C28.9014 10.1219 28.6834 9.89295 28.4145 9.89243Z" fill="white"/>
</svg>
