<svg width="32" height="48" viewBox="0 0 32 48" fill="none" xmlns="http://www.w3.org/2000/svg">
<path d="M28.6943 6.47962C28.4661 6.16528 28.0266 6.09525 27.7123 6.32325C27.3978 6.55125 27.3279 6.99094 27.5559 7.30528C29.3285 9.74925 30.2655 12.6424 30.2655 15.6716C30.2655 18.5785 29.4058 21.4326 27.7793 23.9254C25.3745 27.6111 23.7704 30.3211 23.399 34.2516C23.3549 34.719 23.0326 35.0923 22.6053 35.2126C22.5768 35.2176 22.5489 35.2243 22.5217 35.2327C22.4523 35.2463 22.3807 35.2536 22.3073 35.2536H9.69287C9.61955 35.2536 9.54783 35.2463 9.47846 35.2327C9.45127 35.2243 9.42333 35.2177 9.39483 35.2126C8.96771 35.0923 8.6453 34.719 8.60115 34.2516C8.2298 30.3212 6.62574 27.6112 4.22087 23.9254C2.5944 21.4327 1.73471 18.5785 1.73471 15.6716C1.7348 7.80562 8.13427 1.40625 16.0002 1.40625C19.6303 1.40625 23.089 2.77069 25.7395 5.24803C26.0233 5.51325 26.468 5.49816 26.7333 5.21456C26.9985 4.93088 26.9835 4.48594 26.6998 4.22072C23.7879 1.49897 19.9881 0 16.0002 0C7.35877 0 0.328552 7.03022 0.328552 15.6716C0.328552 18.8521 1.26727 21.9719 3.04318 24.6937C5.33349 28.2039 6.86021 30.7748 7.20118 34.3838C7.28565 35.2779 7.82058 36.0205 8.56974 36.3958V42.9951C8.56974 43.8689 9.12062 44.6165 9.8933 44.9088C9.96212 46.6251 11.3797 48 13.1125 48H18.8879C20.6206 48 22.0382 46.6251 22.1071 44.9089C22.8798 44.6166 23.4307 43.869 23.4307 42.9952V36.3959C24.1799 36.0205 24.7148 35.278 24.7993 34.3839C25.1402 30.7748 26.667 28.204 28.9573 24.6938C30.7332 21.972 31.6719 18.8522 31.6719 15.6717C31.6718 12.3438 30.6422 9.16528 28.6943 6.47962ZM14.3817 39.3913H22.0244V40.6744H9.9759V39.3913H11.5694C11.9578 39.3913 12.2725 39.0765 12.2725 38.6882C12.2725 38.2999 11.9578 37.9851 11.5694 37.9851H9.9759V36.6598H22.0245V37.9851H14.3818C13.9934 37.9851 13.6786 38.2999 13.6786 38.6882C13.6786 39.0765 13.9934 39.3913 14.3817 39.3913ZM21.4193 43.6331C21.4151 43.633 21.4109 43.6329 21.4066 43.6329C21.4036 43.6329 21.4006 43.6329 21.3976 43.6329C21.3878 43.633 21.378 43.6334 21.3682 43.634H10.6322C10.6224 43.6335 10.6126 43.6331 10.6026 43.6329C10.5952 43.6328 10.5877 43.6328 10.5803 43.633C10.244 43.615 9.9758 43.3358 9.9758 42.9951V42.0805H22.0244V42.9951C22.0245 43.336 21.756 43.6155 21.4193 43.6331ZM18.8879 46.5938H13.1125C12.2004 46.5938 11.4432 45.9176 11.3157 45.0403H20.6846C20.5572 45.9176 19.8 46.5938 18.8879 46.5938Z" fill="white"/>
<path d="M23.7194 19.7169C23.7441 19.6305 23.8269 19.5701 23.9206 19.5701H24.4901C25.3821 19.5701 26.1077 18.8444 26.1077 17.9524V16.9102C26.1077 16.0183 25.3821 15.2926 24.4901 15.2926H23.8811C23.7889 15.2926 23.7066 15.2337 23.681 15.1494C23.5214 14.6222 23.3063 14.1091 23.0415 13.6243C22.9978 13.5444 23.0133 13.4427 23.0789 13.377L23.5157 12.9403C23.8212 12.6347 23.9895 12.2285 23.9895 11.7964C23.9895 11.3643 23.8212 10.9581 23.5157 10.6526L22.7787 9.91561C22.4731 9.61008 22.0669 9.4418 21.6349 9.4418C21.2028 9.4418 20.7966 9.61008 20.491 9.91561L20.0544 10.3523C19.9887 10.418 19.8871 10.4336 19.8071 10.3899C19.3227 10.1253 18.8096 9.91008 18.282 9.75023C18.1976 9.72473 18.1388 9.64242 18.1388 9.55027V8.94127C18.1388 8.04923 17.4131 7.32361 16.5211 7.32361H15.4789C14.5869 7.32361 13.8612 8.04933 13.8612 8.94127V9.5107C13.8612 9.60455 13.8008 9.68733 13.7144 9.71189C13.1706 9.86649 12.6413 10.0795 12.1412 10.345C12.0632 10.3864 11.9635 10.3699 11.8985 10.305L11.5091 9.91552C11.2035 9.60998 10.7973 9.4417 10.3652 9.4417C9.93321 9.4417 9.52699 9.60998 9.22136 9.91552L8.48439 10.6525C8.17886 10.958 8.01058 11.3642 8.01058 11.7963C8.01058 12.2284 8.17886 12.6346 8.48449 12.9403L8.83408 13.2899C8.90074 13.3564 8.91611 13.4582 8.8714 13.5376C8.58452 14.0479 8.35333 14.5897 8.18402 15.1481C8.15833 15.2331 8.07396 15.2926 7.97899 15.2926H7.51005C6.61802 15.2926 5.8924 16.0183 5.8924 16.9102V17.9524C5.8924 18.8444 6.61802 19.5701 7.51005 19.5701H7.94243C8.0373 19.5701 8.12036 19.6297 8.14465 19.7151C8.30852 20.292 8.53755 20.8515 8.82546 21.378C8.86783 21.4553 8.85133 21.5554 8.78543 21.6212L8.4843 21.9224C8.17877 22.2279 8.01049 22.6341 8.01049 23.0662C8.01049 23.4983 8.17877 23.9045 8.48439 24.2101L9.22127 24.9469C9.5268 25.2526 9.93311 25.4208 10.3651 25.4208C10.7972 25.4208 11.2035 25.2526 11.509 24.947L11.8102 24.6459C11.8759 24.58 11.9761 24.5637 12.0534 24.606C12.5801 24.894 13.1396 25.123 13.7163 25.2868C13.8016 25.311 13.8612 25.3942 13.8612 25.489V25.9214C13.8612 26.8134 14.5869 27.539 15.4789 27.539H16.5211C17.4131 27.539 18.1388 26.8133 18.1388 25.9214V25.4525C18.1388 25.3576 18.1982 25.2733 18.2832 25.2474C18.8418 25.0781 19.3836 24.8468 19.8937 24.5599C19.9731 24.5155 20.0749 24.5309 20.1415 24.5974L20.4911 24.947C20.7967 25.2526 21.2029 25.4208 21.635 25.4208C22.067 25.4208 22.4732 25.2526 22.7787 24.947L23.5158 24.2101C23.8213 23.9045 23.9896 23.4983 23.9896 23.0662C23.9896 22.6341 23.8213 22.2279 23.5158 21.9224L23.1264 21.5328C23.0615 21.4679 23.045 21.368 23.0863 21.29C23.3519 20.79 23.5648 20.2606 23.7194 19.7169ZM22.3668 19.3323C22.2393 19.781 22.0635 20.2178 21.8443 20.6307C21.5105 21.2594 21.6263 22.0215 22.132 22.5271L22.5213 22.9166C22.6038 22.999 22.6038 23.1332 22.5214 23.2155L21.7843 23.9524C21.702 24.0347 21.5679 24.0348 21.4855 23.9524L21.1359 23.6028C20.6252 23.0923 19.831 22.9816 19.2044 23.334C18.7833 23.5708 18.3361 23.7617 17.8752 23.9014C17.2024 24.1054 16.7325 24.7431 16.7325 25.4522V25.9211C16.7325 26.0377 16.6376 26.1325 16.5211 26.1325H15.4789C15.3624 26.1325 15.2675 26.0376 15.2675 25.9211V25.4887C15.2675 24.7682 14.7876 24.1288 14.1004 23.9337C13.6245 23.7986 13.1628 23.6095 12.728 23.3718C12.4891 23.2412 12.2261 23.1778 11.9639 23.1778C11.5438 23.1778 11.1263 23.3407 10.8159 23.6512L10.5146 23.9523C10.4635 24.0035 10.4051 24.0142 10.3651 24.0142C10.3252 24.0142 10.2669 24.0035 10.2156 23.9522L9.47871 23.2153C9.39621 23.1329 9.39621 22.9987 9.47871 22.9163L9.77974 22.6153C10.2842 22.1109 10.3991 21.3245 10.0592 20.703C9.82165 20.2683 9.63255 19.8066 9.49736 19.3306C9.30218 18.6434 8.6628 18.1635 7.94233 18.1635H7.50996C7.39343 18.1635 7.29855 18.0686 7.29855 17.9521V16.9098C7.29855 16.7933 7.39343 16.6984 7.50996 16.6984H7.97889C8.68793 16.6984 9.32571 16.2286 9.52971 15.5557C9.6693 15.095 9.86027 14.6477 10.0971 14.2265C10.4495 13.6 10.339 12.8057 9.8283 12.2951L9.47871 11.9455C9.39621 11.8631 9.39621 11.7289 9.47871 11.6465L10.2157 10.9095C10.298 10.8272 10.4321 10.8271 10.5146 10.9095L10.904 11.299C11.4099 11.8048 12.1718 11.9205 12.8006 11.5866C13.2132 11.3675 13.6501 11.1917 14.0988 11.0641C14.7868 10.8686 15.2674 10.2296 15.2674 9.51023V8.9408C15.2674 8.82417 15.3623 8.72939 15.4788 8.72939H16.521C16.6376 8.72939 16.7324 8.82427 16.7324 8.9408V9.5498C16.7324 10.2675 17.1913 10.8887 17.8742 11.0956C18.3097 11.2275 18.7331 11.4052 19.1331 11.6235C19.7569 11.9643 20.5448 11.8501 21.0488 11.3461L21.4854 10.9095C21.5679 10.827 21.702 10.8271 21.7842 10.9095L22.5212 11.6464C22.6037 11.7288 22.6037 11.863 22.5213 11.9453L22.0845 12.3821C21.5806 12.8861 21.4665 13.6738 21.8072 14.2977C22.0257 14.698 22.2034 15.1215 22.3351 15.5566C22.5421 16.2394 23.1633 16.6982 23.881 16.6982H24.49C24.6065 16.6982 24.7014 16.7931 24.7014 16.9096V17.9519C24.7014 18.0684 24.6065 18.1633 24.49 18.1633H23.9205C23.2013 18.1638 22.5624 18.6443 22.3668 19.3323Z" fill="white"/>
<path d="M16.0002 12.3027C13.1723 12.3027 10.8717 14.6035 10.8717 17.4313C10.8717 20.2592 13.1723 22.5599 16.0002 22.5599C18.8281 22.5599 21.1287 20.2592 21.1287 17.4313C21.1287 14.6035 18.8281 12.3027 16.0002 12.3027ZM16.0002 21.1537C13.9477 21.1537 12.278 19.4838 12.278 17.4313C12.278 15.3789 13.9478 13.709 16.0002 13.709C18.0526 13.709 19.7224 15.3789 19.7224 17.4313C19.7224 19.4838 18.0527 21.1537 16.0002 21.1537Z" fill="white"/>
</svg>
