<svg width="97" height="97" viewBox="0 0 97 97" fill="none" xmlns="http://www.w3.org/2000/svg">
<g filter="url(#filter0_d)">
<g clip-path="url(#clip0)">
<path d="M58.9297 45.1953C57.9702 45.1953 57.1914 45.9741 57.1914 46.9336C57.1914 47.893 57.9702 48.6719 58.9297 48.6719C59.8891 48.6719 60.668 47.893 60.668 46.9336C60.668 45.9741 59.8891 45.1953 58.9297 45.1953Z" fill="#77AABB"/>
<path d="M21.7602 64.2791L4.3774 86.1814C3.96252 86.7036 3.88375 87.4172 4.17369 88.0175C4.46363 88.6184 5.07203 89 5.73882 89H91.2623C91.929 89 92.5374 88.6184 92.8274 88.0175C93.118 87.4172 93.0386 86.7036 92.6237 86.1814L75.2409 64.2791C74.9116 63.8635 74.4098 63.6211 73.8794 63.6211H58.6525L71.6523 43.2316C74.7017 38.6598 76.313 33.3281 76.313 27.8125C76.313 12.4769 63.8368 0 48.5005 0C33.1643 0 20.688 12.4769 20.688 27.8125C20.688 33.3281 22.2993 38.6591 25.3488 43.2316L38.3486 63.6211H23.1216C22.5913 63.6211 22.0902 63.8635 21.7602 64.2791ZM15.2702 78.0488H25.7807L19.8488 85.5234H9.33761L15.2702 78.0488ZM40.5656 67.0977L45.3309 74.5723H32.9782L38.9108 67.0977H40.5656ZM56.4362 67.0977H58.091L64.0228 74.5723H51.6709L56.4362 67.0977ZM66.7824 78.0488L72.7143 85.5234H24.2868L30.2194 78.0488H66.7824ZM77.153 85.5234L71.2204 78.0488H81.7316L87.6635 85.5234H77.153ZM78.9721 74.5723H68.4616L62.529 67.0977H73.0402L78.9721 74.5723ZM28.2509 41.3168C25.5776 37.3147 24.1646 32.6451 24.1646 27.8125C24.1646 14.3938 35.0818 3.47656 48.5005 3.47656C61.9193 3.47656 72.8365 14.3938 72.8365 27.8125C72.8365 32.6451 71.4234 37.3147 68.7508 41.3168C68.7434 41.327 68.7373 41.3371 68.7305 41.3473C67.589 43.1379 49.3799 71.6987 48.5005 73.0771C46.289 69.608 30.5229 44.8796 28.2706 41.3473C28.2645 41.3371 28.2577 41.327 28.2509 41.3168ZM34.4721 67.0977L28.5402 74.5723H18.029L23.9616 67.0977H34.4721Z" fill="#77AABB"/>
<path d="M48.5 45.1953C58.0429 45.1953 65.8828 37.4674 65.8828 27.8125C65.8828 18.2275 58.085 10.4297 48.5 10.4297C38.915 10.4297 31.1172 18.2275 31.1172 27.8125C31.1172 37.4701 38.9598 45.1953 48.5 45.1953ZM48.5 13.9062C56.1681 13.9062 62.4062 20.1444 62.4062 27.8125C62.4062 35.5519 56.1179 41.7188 48.5 41.7188C40.8801 41.7188 34.5938 35.5519 34.5938 27.8125C34.5938 20.1444 40.8319 13.9062 48.5 13.9062Z" fill="#77AABB"/>
<path d="M55.8218 51.1273C55.0002 50.6316 53.9314 50.8964 53.4358 51.7187L47.0109 62.3779C46.5152 63.2002 46.7801 64.2683 47.6023 64.764C48.428 65.2617 49.4948 64.9914 49.9884 64.1725L56.4132 53.5133C56.9089 52.6911 56.6441 51.623 55.8218 51.1273Z" fill="#77AABB"/>
</g>
</g>
<defs>
<filter id="filter0_d" x="0" y="0" width="97" height="97" filterUnits="userSpaceOnUse" color-interpolation-filters="sRGB">
<feFlood flood-opacity="0" result="BackgroundImageFix"/>
<feColorMatrix in="SourceAlpha" type="matrix" values="0 0 0 0 0 0 0 0 0 0 0 0 0 0 0 0 0 0 127 0"/>
<feOffset dy="4"/>
<feGaussianBlur stdDeviation="2"/>
<feColorMatrix type="matrix" values="0 0 0 0 0 0 0 0 0 0 0 0 0 0 0 0 0 0 0.25 0"/>
<feBlend mode="normal" in2="BackgroundImageFix" result="effect1_dropShadow"/>
<feBlend mode="normal" in="SourceGraphic" in2="effect1_dropShadow" result="shape"/>
</filter>
<clipPath id="clip0">
<rect x="4" width="89" height="89" fill="white"/>
</clipPath>
</defs>
</svg>
