<svg width="91" height="91" viewBox="0 0 91 91" fill="none" xmlns="http://www.w3.org/2000/svg">
<g clip-path="url(#clip0)">
<path d="M54.8678 75.8328C51.9406 75.8328 49.5594 78.214 49.5594 81.1412C49.5594 84.0684 51.9406 86.4496 54.8678 86.4496C57.795 86.4496 60.1762 84.0684 60.1762 81.1412C60.1762 78.214 57.7935 75.8328 54.8678 75.8328ZM54.8678 83.4162C53.6135 83.4162 52.5928 82.3955 52.5928 81.1412C52.5928 79.8869 53.6135 78.8661 54.8678 78.8661C56.1221 78.8661 57.1428 79.8869 57.1428 81.1412C57.1428 82.3955 56.1221 83.4162 54.8678 83.4162Z" fill="#77AABB"/>
<path d="M61.6929 56.116C65.0388 56.116 67.7597 53.395 67.7597 50.0492C67.7597 46.7034 65.0388 43.9824 61.6929 43.9824C58.3471 43.9824 55.6262 46.7034 55.6262 50.0492C55.6262 53.395 58.3456 56.116 61.6929 56.116ZM61.6929 47.0158C63.3658 47.0158 64.7263 48.3763 64.7263 50.0492C64.7263 51.7221 63.3658 53.0826 61.6929 53.0826C60.02 53.0826 58.6595 51.7221 58.6595 50.0492C58.6595 48.3763 60.02 47.0158 61.6929 47.0158Z" fill="#77AABB"/>
<path d="M25.2923 18.1987C25.6806 18.1987 26.0689 18.0501 26.3646 17.7543L29.398 14.721C29.991 14.1279 29.991 13.1694 29.398 12.5764C28.805 11.9833 27.8464 11.9833 27.2534 12.5764L24.22 15.6097C23.627 16.2028 23.627 17.1613 24.22 17.7543C24.5158 18.0501 24.9041 18.1987 25.2923 18.1987Z" fill="#77AABB"/>
<path d="M79.8932 45.117C79.8932 43.7823 79.373 42.528 78.4296 41.5846L77.5848 40.7398C79.0242 39.4658 79.8917 37.623 79.8917 35.6407C79.8917 31.8777 76.8295 28.8155 73.0666 28.8155C72.7906 28.8155 72.5176 28.8428 72.2476 28.8762C72.281 28.6047 72.3083 28.3348 72.3083 28.0572C72.3083 24.2943 69.2461 21.2321 65.4832 21.2321C65.2071 21.2321 64.9341 21.2594 64.6641 21.2928C64.6975 21.0213 64.7248 20.7513 64.7248 20.4737C64.7248 16.7108 61.6626 13.6486 57.8997 13.6486C57.6237 13.6486 57.3507 13.6759 57.0807 13.7093C57.114 13.4378 57.1413 13.1678 57.1413 12.8903C57.1413 9.12737 54.0791 6.06517 50.3162 6.06517C48.3324 6.06517 46.4911 6.93423 45.2171 8.37206L44.0129 7.1678L38.3056 1.46049C36.3566 -0.488458 33.1867 -0.488458 31.2408 1.46049L12.5673 20.134C10.6214 22.083 10.6214 25.2513 12.5673 27.2003L18.2746 32.9076L25.7216 40.3545C23.6649 41.5315 22.2589 43.7231 22.2589 46.2575C22.2589 48.6281 23.4769 50.7181 25.3181 51.9421C25.4106 52.0649 25.5183 52.1863 25.6624 52.3091L41.9759 68.5605V71.2844H38.9426V91.0014H66.243H78.3765V71.2844H75.3432V66.6889C78.2446 64.2303 79.8932 60.6949 79.8932 56.8744C79.8932 54.2353 79.0697 51.6721 77.5636 49.5154L78.4296 48.6493C79.373 47.7059 79.8932 46.4516 79.8932 45.117ZM76.8599 35.6407C76.8599 36.8055 76.323 37.8838 75.4387 38.5937L70.1136 33.2686C70.8234 32.3843 71.9033 31.8474 73.0666 31.8474C75.1581 31.8489 76.8599 33.5491 76.8599 35.6407ZM69.2764 28.0572C69.2764 29.222 68.7395 30.3004 67.8553 31.0102L62.5302 25.6851C63.24 24.8009 64.3199 24.264 65.4832 24.264C67.5747 24.2655 69.2764 25.9657 69.2764 28.0572ZM61.6929 20.4737C61.6929 21.6386 61.156 22.7169 60.2718 23.4267L54.9467 18.1016C55.6565 17.2174 56.7364 16.6805 57.8997 16.6805C59.9912 16.682 61.6929 18.3822 61.6929 20.4737ZM50.3177 9.09855C52.4093 9.09855 54.1095 10.7988 54.1095 12.8903C54.1095 14.0551 53.5726 15.1335 52.6883 15.8433L47.3632 10.5182C48.073 9.63546 49.1529 9.09855 50.3177 9.09855ZM14.7119 25.0572C13.9475 24.2913 13.9475 23.046 14.7119 22.2801L33.3854 3.60661C33.575 3.41702 33.7964 3.27445 34.0315 3.1789C34.1377 3.13492 34.2575 3.13644 34.3697 3.11217C34.6397 3.05453 34.9066 3.05453 35.1766 3.11217C35.2889 3.13644 35.4087 3.13492 35.5148 3.1789C35.7499 3.27445 35.9698 3.41702 36.1609 3.60661L39.7237 7.16932L18.2746 28.6184L14.7119 25.0572ZM41.8683 9.31392L43.6549 11.1006L51.2384 18.684L52.1074 19.5531L58.8218 26.2675L59.6909 27.1366L66.4053 33.851L67.2744 34.72L74.8578 42.3035L76.2835 43.7292C77.0495 44.4951 77.0495 45.7388 76.2835 46.5047L75.6207 47.169L57.6115 65.1797C56.8486 65.9442 55.6004 65.9472 54.8345 65.1797L42.7388 53.0826H44.2495C48.0124 53.0826 51.0746 50.0204 51.0746 46.2575C51.0746 42.4946 48.0124 39.4324 44.2495 39.4324H29.0871L20.4177 30.763L41.8683 9.31392ZM28.265 42.5598L28.8945 42.4885C28.9567 42.4794 29.0188 42.4658 29.0825 42.4658H44.2495C46.341 42.4658 48.0412 44.166 48.0412 46.2575C48.0412 48.349 46.341 50.0492 44.2495 50.0492H39.7055H35.4163H29.0825C26.991 50.0492 25.2908 48.349 25.2908 46.2575C25.2923 44.4481 26.5679 42.9359 28.265 42.5598ZM41.9759 87.9665V74.3163H54.7556C59.4164 74.3163 63.2096 78.1096 63.2096 82.7703V87.9665H41.9759ZM75.3432 87.9665H66.243V82.7703C66.243 79.4245 64.7961 76.4184 62.5059 74.3163H75.3432V87.9665ZM75.3811 51.6994C76.3427 53.2479 76.8599 55.0392 76.8599 56.8744C76.8599 59.9912 75.422 62.8592 72.9134 64.7475L72.3098 65.2025V71.2829H54.7541H45.0078V67.1606L44.4724 66.7071C44.4042 66.6479 44.3314 66.5933 44.1994 66.4947L30.7357 53.0811H38.4481L52.6883 67.3228C53.6636 68.2966 54.9421 68.7834 56.2207 68.7834C57.5008 68.7834 58.7809 68.2966 59.7546 67.3228L75.3811 51.6994Z" fill="#77AABB"/>
</g>
<defs>
<clipPath id="clip0">
<rect width="91" height="91" fill="white"/>
</clipPath>
</defs>
</svg>
