<svg width="141" height="51" viewBox="0 0 141 51" fill="none" xmlns="http://www.w3.org/2000/svg">
<path d="M92.4196 34.9751C91.9578 33.9322 91.0958 33.4414 89.8336 33.4414C87.0936 33.4414 85.5851 35.9874 85.5851 38.4721C85.5851 40.4659 86.8474 41.8156 88.7253 41.8156C89.772 41.8156 90.5417 41.4782 91.1574 40.7113L90.9727 41.4782C90.6648 42.7052 90.357 43.6868 88.8177 43.6868C87.8633 43.6868 87.3399 43.288 87.2784 42.4905H84.9694V42.6439C84.9694 44.239 86.3856 45.1899 88.6637 45.1899C90.8188 45.1899 92.5428 44.5457 93.1585 41.6316L94.8825 33.6868H92.6659L92.4196 34.9751ZM89.495 40.1899C88.479 40.1899 87.8633 39.515 87.8633 38.3801C87.8633 36.9997 88.6022 35.1899 90.2338 35.1899C91.2805 35.1899 91.8963 35.8647 91.8963 36.969C91.8963 38.7788 90.8188 40.1899 89.495 40.1899Z" fill="#3A9BBB"/>
<path d="M102.333 33.5334C101.994 33.4721 101.871 33.4414 101.594 33.4414C100.27 33.4414 99.4388 34.1776 98.7308 35.2205L99.1002 33.6868H96.9144L95.1288 42.061H97.4378L98.2382 38.3494C98.546 36.877 99.2541 35.558 101.009 35.558C101.317 35.558 101.532 35.5886 101.933 35.6807L102.333 33.5334Z" fill="#3A9BBB"/>
<path d="M106.612 33.4414C103.78 33.4414 101.748 35.6193 101.748 38.6561C101.748 41.0181 103.195 42.3371 105.565 42.3371C108.644 42.3371 110.491 40.0058 110.491 37.0917C110.491 34.7911 109.075 33.4414 106.612 33.4414ZM105.75 40.6193C104.672 40.6193 104.026 39.9138 104.026 38.6868C104.026 36.6929 105.134 35.1285 106.52 35.1285C107.566 35.1285 108.213 35.834 108.213 36.9997C108.213 38.4414 107.505 40.6193 105.75 40.6193Z" fill="#3A9BBB"/>
<path d="M118.341 33.6868L117.387 38.1653C117.141 39.3003 116.525 40.4966 115.201 40.4966C114.432 40.4966 114.001 40.1285 114.001 39.4537C114.001 39.239 114.062 38.8402 114.185 38.2267L115.14 33.6868H112.8L111.722 38.7482C111.599 39.331 111.538 39.7604 111.538 40.0979C111.538 41.4476 112.492 42.3064 114.062 42.3064C115.294 42.3064 116.186 41.8463 116.895 40.8341L116.617 42.0611H118.834L120.62 33.6868H118.341Z" fill="#3A9BBB"/>
<path d="M127.331 33.4721C126.284 33.4721 125.361 33.9015 124.683 34.7297L124.899 33.6868H122.713L120.312 45.0365H122.621L123.514 40.8647C123.945 41.7543 124.899 42.3064 126.13 42.3064C128.993 42.3064 130.44 39.5764 130.44 36.9997C130.44 34.8218 129.24 33.4721 127.331 33.4721ZM125.699 40.558C124.653 40.558 123.975 39.8524 123.975 38.7481C123.975 37.3678 124.653 35.2819 126.377 35.2819C127.485 35.2819 128.101 35.9567 128.101 37.1531C128.101 39.0856 127.085 40.558 125.699 40.558Z" fill="#3A9BBB"/>
<path d="M48.8266 12.5518C43.5314 12.5518 40.4528 16.5703 40.4528 21.5703C40.4528 25.3433 42.5771 27.9199 46.4561 27.9199C48.334 27.9199 49.6578 27.3371 50.6738 26.1101L50.5814 27.5825H53.0443L54.7375 19.5764H48.5803L47.9646 22.3371H50.7046C50.1504 23.9936 49.1653 24.9445 47.3181 24.9445C45.3786 24.9445 44.3319 23.7482 44.3319 21.5396C44.3319 18.8709 45.5017 15.6807 48.6111 15.6807C50.1812 15.6807 51.0124 16.3862 51.1356 17.8586H54.8299V17.6745C54.8607 14.1469 51.9668 12.5518 48.8266 12.5518Z" fill="#1D3548"/>
<path d="M67.6985 13.0733C66.9596 12.9199 66.2207 12.8586 65.0201 12.8586H58.555L55.4456 27.5518H59.2939L60.4637 22.0917H62.6496C64.2812 22.0917 64.8969 22.4291 64.8969 24.0856C64.8969 24.8831 64.8046 25.7114 64.8046 26.5089C64.8046 26.9383 64.8354 27.2451 64.9277 27.5212H68.7452C68.5913 27.1224 68.5605 26.8463 68.5605 26.1101C68.5605 24.4844 68.622 23.9322 68.622 23.5641C68.622 22.1224 68.4065 21.2942 67.0827 20.6807C69.1454 20.4046 70.4692 18.7788 70.4692 16.6009C70.4384 14.7298 69.484 13.4721 67.6985 13.0733ZM63.5731 19.3923H61.0179L61.7568 15.8341H64.2504C65.3587 15.8341 66.4978 16.0181 66.4978 17.3371C66.5286 19.1776 65.0201 19.3923 63.5731 19.3923Z" fill="#1D3548"/>
<path d="M79.6434 12.5212C74.533 12.5212 71.362 16.4169 71.362 21.3249C71.362 25.5273 73.7941 27.9199 77.9194 27.9199C83.153 27.9199 86.2009 23.7788 86.2009 18.7788C86.2009 14.7911 83.5225 12.5212 79.6434 12.5212ZM78.1657 24.8218C76.2878 24.8218 75.2102 23.5948 75.2102 21.4782C75.2102 18.9322 76.4417 15.6193 79.4279 15.6193C81.4598 15.6193 82.2602 17.0917 82.2602 18.9322C82.2602 21.2635 80.998 24.8218 78.1657 24.8218Z" fill="#1D3548"/>
<path d="M98.3613 13.288C96.976 12.8279 95.1596 12.8893 93.6511 12.8893H89.7105L86.5703 27.5825H92.6044C95.4982 27.5825 97.7148 27.2758 99.7159 24.9445C101.04 23.4107 101.809 21.1715 101.809 18.9322C101.84 16.1408 100.516 13.9936 98.3613 13.288ZM96.0216 23.5948C95.2212 24.2083 94.5439 24.3617 92.7891 24.3617H91.1266L92.8814 16.0488H94.2976C96.6373 16.0488 97.9303 16.6623 97.9303 19.2083C97.9303 20.9568 97.1607 22.7359 96.0216 23.5948Z" fill="#1D3548"/>
<path d="M109.567 12.8586L100.886 27.5518H104.95L106.458 24.8525H111.63L112 27.5518H115.848L113.446 12.8586H109.567ZM107.905 22.1224L108.952 20.2512C109.567 19.1469 110.245 17.9199 110.707 16.785C110.737 17.9506 110.922 19.0856 111.045 20.2206L111.291 22.1531H107.905V22.1224Z" fill="#1D3548"/>
<path d="M124.591 15.4353C126.069 15.4353 126.654 15.9568 126.808 17.3065H130.44V17.1531C130.44 14.2083 128.439 12.6132 124.683 12.6132C121.112 12.6132 118.742 14.4844 118.742 17.3065C118.742 19.6377 120.343 20.5273 122.282 21.2022C124.376 21.9384 125.946 22.0304 125.946 23.3187C125.946 24.331 124.991 25.0058 123.514 25.0058C121.759 25.0058 120.897 24.239 120.897 22.7052V22.6746H117.11C117.079 22.7973 117.079 22.8893 117.079 22.9506C117.079 26.5396 119.85 27.8893 123.175 27.8893C126.315 27.8893 129.671 26.5089 129.671 22.9199C129.671 19.9138 127.608 19.2696 124.56 18.4414C123.76 18.2267 122.436 17.9813 122.436 16.9384C122.436 15.9874 123.267 15.4353 124.591 15.4353Z" fill="#1D3548"/>
<path d="M15.8551 34.7604C13.0228 34.7604 10.2213 33.6868 8.06628 31.5396C3.78702 27.2451 3.78702 20.3126 8.06628 16.0181L15.1163 8.99357C19.4263 4.69909 26.384 4.69909 30.694 8.99357C35.0041 13.288 35.0041 20.2206 30.694 24.515L23.644 31.5396C21.489 33.6868 18.6875 34.7604 15.8551 34.7604ZM22.9051 8.19602C20.6886 8.19602 18.5027 9.02424 16.8095 10.7114L9.75951 17.7359C6.40384 21.0795 6.40384 26.5396 9.75951 29.8831C11.3912 31.5089 13.5462 32.3985 15.8551 32.3985C18.1641 32.3985 20.3191 31.5089 21.9508 29.8831L29.0008 22.8586C32.3565 19.515 32.3565 14.0549 29.0008 10.7114C27.3075 9.02424 25.1217 8.19602 22.9051 8.19602Z" fill="#1D3548"/>
<path d="M22.9048 34.7604C19.9493 34.7604 17.2094 33.6255 15.1159 31.5396L8.06592 24.5457C3.78667 20.2819 3.78667 13.3187 8.06592 9.02424C12.3452 4.72976 19.3336 4.72976 23.6437 9.02424L30.6937 16.0488C35.0037 20.3126 35.0037 27.2758 30.6937 31.5703C28.6002 33.6255 25.8602 34.7604 22.9048 34.7604ZM15.8548 8.19602C13.5458 8.19602 11.3908 9.08559 9.75915 10.7114C6.40348 14.0549 6.40348 19.515 9.75915 22.8586L16.8092 29.8831C18.4408 31.5089 20.5958 32.3985 22.9048 32.3985C25.2137 32.3985 27.3688 31.5089 29.0004 29.8831C32.3561 26.5396 32.3561 21.0795 29.0004 17.7359L21.9504 10.7114C20.3188 9.08559 18.1637 8.19602 15.8548 8.19602Z" fill="#3A9BBB"/>
<path d="M30.7552 20.2819C30.3242 21.2022 29.7393 22.0917 29.0004 22.8586L21.9504 29.8831C20.3188 31.5089 18.1637 32.3985 15.8548 32.3985C13.5458 32.3985 11.3908 31.5089 9.75916 29.8831C8.03514 28.1654 7.20392 25.8954 7.23471 23.6255C6.43427 22.6132 5.81855 21.4782 5.41833 20.2819C4.12532 24.1163 5.01811 28.5028 8.06593 31.5396C10.221 33.6868 13.0225 34.7604 15.8548 34.7604C18.6871 34.7604 21.4886 33.6868 23.6437 31.5396L30.6937 24.5457C31.0015 24.239 31.2478 23.9322 31.5249 23.6255C31.4941 22.4905 31.2478 21.3555 30.7552 20.2819Z" fill="#1D3548"/>
<path d="M16.8092 10.7114C18.5024 9.02425 20.6882 8.19603 22.9048 8.19603C24.0747 8.19603 25.2753 8.44143 26.3528 8.90155C26.2297 7.95063 25.9218 7.03039 25.614 6.14082C21.9812 5.22057 17.9483 6.17149 15.1159 9.02425L13.3919 10.742C14.0076 11.2328 14.6849 11.7236 15.393 12.1224L16.8092 10.7114Z" fill="#1D3548"/>
<path d="M14.3771 22.7666C15.7543 22.7666 16.8707 21.6541 16.8707 20.2819C16.8707 18.9097 15.7543 17.7972 14.3771 17.7972C12.9999 17.7972 11.8834 18.9097 11.8834 20.2819C11.8834 21.6541 12.9999 22.7666 14.3771 22.7666Z" fill="#1D3548"/>
</svg>
