<svg width="97" height="97" viewBox="0 0 97 97" fill="none" xmlns="http://www.w3.org/2000/svg">
<g clip-path="url(#clip0)">
<g clip-path="url(#clip1)">
<path d="M90.3254 42.2615L90.3256 42.2613L78.7056 34.5577V8.80867C78.7056 7.97632 78.0308 7.30151 77.1985 7.30151H13.7995C12.9672 7.30151 12.2924 7.97632 12.2924 8.80867V34.5595L0.674402 42.2613L0.674603 42.2617C0.268274 42.5316 0 42.993 0 43.5174V90.191C0 91.0234 0.674803 91.6982 1.50715 91.6982H89.4928C90.3252 91.6982 91 91.0234 91 90.191V43.5174C91 42.993 90.7317 42.5316 90.3254 42.2615ZM12.2924 47.5323L7.56491 45.0246H12.2924V47.5323ZM3.01431 46.0229L37.6738 64.4082L3.01431 87.3827V46.0229ZM45.4994 62.837L84.4919 88.6839H6.50709L45.4994 62.837ZM53.3256 64.4084L87.9855 46.0229V87.3835L53.3256 64.4084ZM78.7056 45.0246H83.4353L78.7056 47.5333V45.0246ZM84.4919 42.0103H78.7056V38.1741L84.4919 42.0103ZM75.6913 10.3158V49.1323L50.4662 62.513L46.3319 59.7726C45.8274 59.438 45.1712 59.438 44.6666 59.7726L40.533 62.5126L15.3067 49.1313V10.3158H75.6913ZM12.2924 42.0103H6.5085L12.2924 38.1761V42.0103Z" fill="#77AABB"/>
<path d="M45.499 46.938H57.5068C58.3391 46.938 59.0139 46.2632 59.0139 45.4308C59.0139 44.5985 58.3391 43.9237 57.5068 43.9237H45.499C39.7089 43.9237 34.9983 39.2131 34.9983 33.423V32.9783C34.9983 27.1882 39.7089 22.4776 45.499 22.4776C51.2891 22.4776 55.9996 27.1882 55.9996 32.9783V34.0902C55.9996 35.3435 54.98 36.3634 53.7264 36.3634C52.4729 36.3634 51.4532 35.3437 51.4532 34.0902V31.9777C51.4532 28.3879 48.5328 25.4672 44.9429 25.4672C41.3531 25.4672 38.4326 28.3877 38.4326 31.9777C38.4326 35.5676 41.3531 38.488 44.9429 38.488C46.5845 38.488 48.0851 37.8761 49.2313 36.87C50.1645 38.3737 51.83 39.3775 53.7264 39.3775C56.6419 39.3775 59.0139 37.0056 59.0139 34.09V32.9781C59.0139 25.5259 52.9512 19.4631 45.499 19.4631C38.0468 19.4631 31.984 25.5259 31.984 32.9781V33.4228C31.984 40.8752 38.0468 46.938 45.499 46.938ZM44.9429 35.4737C43.0152 35.4737 41.4469 33.9055 41.4469 31.9777C41.4469 30.05 43.0154 28.4815 44.9429 28.4815C46.8705 28.4815 48.4389 30.05 48.4389 31.9777C48.4389 33.9055 46.8707 35.4737 44.9429 35.4737Z" fill="#77AABB"/>
</g>
</g>
<defs>
<clipPath id="clip0">
<rect width="97" height="97" fill="white"/>
</clipPath>
<clipPath id="clip1">
<rect y="4" width="91" height="91" fill="white"/>
</clipPath>
</defs>
</svg>
