<svg width="49" height="48" viewBox="0 0 49 48" fill="none" xmlns="http://www.w3.org/2000/svg">
<path d="M37.2249 10.7387C33.8306 7.34442 29.2269 5.43751 24.4267 5.4375C19.6264 5.43749 15.0227 7.34439 11.6284 10.7387C8.23407 14.133 6.32716 18.7367 6.32715 23.5369C6.32714 28.3372 8.23403 32.9409 11.6283 36.3352C14.9307 39.6379 19.382 41.5361 24.0515 41.6328C28.7211 41.7295 33.2472 40.0172 36.6834 36.854L42.1723 42.3429C42.3129 42.4836 42.5037 42.5626 42.7026 42.5626C42.9015 42.5626 43.0923 42.4836 43.233 42.3429C43.3736 42.2022 43.4526 42.0115 43.4526 41.8125C43.4526 41.6136 43.3736 41.4229 43.233 41.2822L37.7436 35.7938C40.9067 32.3576 42.6189 27.8316 42.5222 23.1622C42.4255 18.4928 40.5275 14.0416 37.2249 10.7392V10.7387ZM7.82715 23.537C7.82686 20.8138 8.49656 18.1323 9.77722 15.729C11.0579 13.3257 12.9101 11.2744 15.1707 9.75591C17.4313 8.23743 20.0307 7.29843 22.7398 7.02171C25.449 6.74498 28.1846 7.13903 30.7055 8.1691C33.2264 9.19918 35.4551 10.8336 37.1952 12.9284C38.9353 15.0231 40.1333 17.5138 40.6836 20.1809C41.2339 22.8479 41.1196 25.6094 40.3508 28.2218C39.5819 30.8343 38.1821 33.2174 36.2748 35.1612C36.1849 35.2189 36.1085 35.2953 36.0508 35.3852C35.8556 35.5769 35.6567 35.763 35.4539 35.9437V35.5205C35.4563 35.2167 35.4235 34.9136 35.3562 34.6173C35.3437 34.5648 35.3304 34.5125 35.3163 34.4604C35.1294 33.7959 34.7797 33.1884 34.299 32.693C33.8182 32.1976 33.2216 31.8298 32.563 31.623L28.0706 30.1664V28.3101C28.8819 27.8076 29.5803 27.1424 30.1218 26.3567C30.6634 25.5709 31.0364 24.6815 31.2173 23.7445L31.4578 22.9175C31.9948 22.7153 32.4392 22.3234 32.707 21.8158C32.9747 21.3083 33.0473 20.7202 32.9109 20.1628C32.8417 19.8723 32.7053 19.6021 32.5126 19.3739C32.3199 19.1458 32.0763 18.9661 31.8015 18.8493V15.9353C31.8084 14.9626 31.6228 13.9981 31.2554 13.0974C30.8879 12.1968 30.3459 11.3777 29.6605 10.6874C28.9751 9.99712 28.16 9.44927 27.2619 9.07541C26.3639 8.70156 25.4008 8.50909 24.428 8.50909C23.4553 8.50909 22.4922 8.70156 21.5941 9.07541C20.6961 9.44927 19.8809 9.99712 19.1955 10.6874C18.5101 11.3777 17.9681 12.1968 17.6007 13.0974C17.2332 13.9981 17.0477 14.9626 17.0546 15.9353V18.8481C16.7791 18.9647 16.5348 19.1444 16.3416 19.3728C16.1484 19.6013 16.0117 19.8719 15.9424 20.163C15.8061 20.7204 15.8786 21.3084 16.1464 21.816C16.4141 22.3235 16.8585 22.7154 17.3956 22.9176L17.6359 23.7446C17.8169 24.6816 18.1899 25.571 18.7315 26.3568C19.273 27.1425 19.9715 27.8076 20.7827 28.3102V30.1665L16.2902 31.6231C15.6317 31.8299 15.0351 32.1977 14.5544 32.693C14.0737 33.1884 13.7241 33.7958 13.5371 34.4602C13.5227 34.5123 13.5094 34.5648 13.4971 34.6175C13.4298 34.9138 13.397 35.2168 13.3995 35.5206V35.9438C13.1575 35.7282 12.9207 35.5051 12.6891 35.2747C11.1429 33.7369 9.91699 31.9076 9.08243 29.8929C8.24788 27.8781 7.82122 25.7178 7.82715 23.537ZM26.7581 30.2419C26.025 30.5714 25.2304 30.7417 24.4266 30.7417C23.6229 30.7417 22.8283 30.5714 22.0951 30.2419V28.945C23.6025 29.4856 25.2508 29.4856 26.7581 28.945V30.2419ZM17.2171 20.475C17.2386 20.3812 17.2826 20.2939 17.3453 20.2208C17.4081 20.1478 17.4876 20.091 17.5772 20.0555C17.808 20.1503 18.0582 20.1882 18.3068 20.1661C18.5554 20.1439 18.7949 20.0622 19.0053 19.9281C19.2157 19.7939 19.3908 19.611 19.5157 19.395C19.6406 19.179 19.7117 18.9361 19.7231 18.6868L19.8051 16.8858C20.1855 16.8858 20.7109 16.8741 21.3319 16.8321C25.323 20.2071 30.9298 20.0325 31.1707 20.0231C31.1728 20.0231 31.1747 20.0231 31.1768 20.0225C31.2883 20.0469 31.3907 20.1023 31.472 20.1824C31.5533 20.2626 31.6102 20.3641 31.6362 20.4752C31.6698 20.6125 31.6748 20.7552 31.6511 20.8945C31.6274 21.0338 31.5754 21.1667 31.4983 21.2851C31.4211 21.4035 31.3206 21.5048 31.2027 21.5828C31.0849 21.6608 30.9524 21.7139 30.8132 21.7386C30.6821 21.7616 30.561 21.8239 30.4661 21.9172C30.3712 22.0106 30.307 22.1306 30.2819 22.2614L29.9484 23.4083C29.9425 23.4287 29.9375 23.4494 29.9337 23.4703C29.6923 24.7543 29.0098 25.9136 28.0042 26.7477C26.9987 27.5819 25.7332 28.0384 24.4267 28.0384C23.1202 28.0384 21.8548 27.5819 20.8492 26.7477C19.8436 25.9136 19.1611 24.7543 18.9197 23.4703C18.9158 23.4494 18.9109 23.4287 18.9049 23.4083L18.5716 22.2614C18.5465 22.1306 18.4822 22.0106 18.3873 21.9172C18.2924 21.8239 18.1713 21.7616 18.0402 21.7386C17.8011 21.6969 17.5844 21.572 17.4284 21.386C17.2724 21.2 17.1871 20.9649 17.1876 20.7222C17.1875 20.6389 17.1974 20.5559 17.2171 20.475ZM24.9446 16.2884C25.505 16.8596 26.8585 18.0121 29.0873 18.5881C27.5035 18.3913 25.2476 17.8892 23.2578 16.6213C23.8484 16.5313 24.4107 16.4203 24.9446 16.2884ZM30.4891 17.5281C28.4986 17.2592 27.1627 16.452 26.4135 15.8507C27.4356 15.5023 28.397 14.9961 29.2628 14.3507C29.4009 14.2448 29.4913 14.0884 29.5141 13.9158C29.5368 13.7432 29.4901 13.5687 29.3842 13.4306C29.2783 13.2925 29.1218 13.2021 28.9493 13.1793C28.7767 13.1565 28.6022 13.2033 28.4641 13.3092C25.1757 15.831 19.2709 15.565 19.2121 15.5623C19.1257 15.5578 19.0393 15.5705 18.9578 15.5996C18.8764 15.6287 18.8015 15.6736 18.7374 15.7317C18.6734 15.7898 18.6214 15.8601 18.5846 15.9383C18.5478 16.0166 18.5268 16.1014 18.5229 16.1878L18.4115 18.6269C18.4102 18.6744 18.3945 18.7205 18.3666 18.759V15.9353C18.3603 15.1354 18.5125 14.3421 18.8142 13.6012C19.116 12.8603 19.5614 12.1865 20.1249 11.6186C20.6883 11.0508 21.3586 10.6 22.0971 10.2924C22.8355 9.98486 23.6276 9.8265 24.4276 9.8265C25.2275 9.8265 26.0196 9.98486 26.7581 10.2924C27.4965 10.6 28.1668 11.0508 28.7302 11.6186C29.2937 12.1865 29.7391 12.8603 30.0409 13.6012C30.3427 14.3421 30.4948 15.1354 30.4885 15.9353L30.4891 17.5281ZM14.7119 37V35.5205C14.7096 35.3172 14.7308 35.1143 14.7752 34.9158C14.7835 34.8798 14.7926 34.8438 14.8025 34.8079C14.9323 34.3533 15.1732 33.9382 15.5036 33.6001C15.834 33.262 16.2435 33.0116 16.695 32.8714L21.3757 31.3539C22.3268 31.8144 23.3699 32.0536 24.4266 32.0536C25.4834 32.0536 26.5264 31.8144 27.4775 31.3539L32.1582 32.8714C32.6097 33.0116 33.0191 33.262 33.3496 33.6001C33.68 33.9382 33.921 34.3533 34.0507 34.8079C34.0605 34.8437 34.0696 34.8796 34.0781 34.9157C34.1224 35.1142 34.1436 35.3172 34.1414 35.5205V37C31.3126 39.0392 27.9138 40.1365 24.4266 40.1365C20.9394 40.1365 17.5407 39.0392 14.7119 37Z" fill="white"/>
</svg>
