<svg width="48" height="48" viewBox="0 0 48 48" fill="none" xmlns="http://www.w3.org/2000/svg">
<path d="M24 0C10.7842 0 0 10.786 0 24C0 37.2158 10.786 48 24 48C37.2158 48 48 37.214 48 24C48 10.7838 37.214 0 24 0ZM24 45.1875C12.3171 45.1875 2.8125 35.6829 2.8125 24C2.8125 12.3171 12.3171 2.8125 24 2.8125C35.6829 2.8125 45.1875 12.3171 45.1875 24C45.1875 35.6829 35.6829 45.1875 24 45.1875Z" fill="white"/>
<path d="M22.5938 11.3438H25.4062V25.4062H22.5938V11.3438Z" fill="white"/>
<path d="M30.3292 13.0378L28.9208 15.4724C31.9574 17.2288 33.8438 20.4965 33.8438 24C33.8438 29.428 29.428 33.8438 24 33.8438C18.572 33.8438 14.1562 29.428 14.1562 24C14.1562 20.4965 16.0426 17.2288 19.0792 15.4724L17.6708 13.0378C13.7681 15.2955 11.3438 19.496 11.3438 24C11.3438 30.9785 17.0215 36.6562 24 36.6562C30.9785 36.6562 36.6562 30.9785 36.6562 24C36.6562 19.496 34.2319 15.2955 30.3292 13.0378Z" fill="white"/>
</svg>
