<svg width="45" height="45" viewBox="0 0 45 45" fill="none" xmlns="http://www.w3.org/2000/svg">
<circle cx="22.9437" cy="22.0563" r="21.5563" stroke="white"/>
<path d="M20.0474 31.9438C19.0607 31.9438 18.0451 31.8624 17.0235 31.6993C15.224 31.4119 13.4025 30.4535 12.887 30.1665L11.5352 29.4139L12.9988 28.9238C14.5988 28.3882 15.572 28.0559 16.7768 27.5355C15.5705 26.9406 14.6407 25.8706 14.1932 24.4874L13.8527 23.4349L14.1319 23.4783C13.8671 23.2066 13.658 22.9308 13.496 22.68C12.9196 21.7886 12.6144 20.6994 12.6794 19.7661L12.7434 18.8474L13.2836 19.0604C13.0557 18.6223 12.891 18.1544 12.7943 17.6639C12.5584 16.4679 12.7558 15.1972 13.3503 14.086L13.8208 13.2065L14.4501 13.9761C16.4403 16.4104 18.9611 17.8545 21.953 18.2772C21.8308 17.4195 21.9224 16.5917 22.2254 15.8498C22.5783 14.9859 23.206 14.2533 24.0402 13.7312C24.9667 13.1514 26.0902 12.8705 27.2037 12.9401C28.3852 13.014 29.4579 13.4648 30.3098 14.2445C30.7258 14.1344 31.0324 14.0169 31.4467 13.8581C31.696 13.7625 31.9787 13.6541 32.3324 13.53L33.6359 13.0727L32.7859 15.5446C32.8419 15.5398 32.8997 15.5357 32.9601 15.5331L34.3521 15.4689L33.5294 16.6137C33.4822 16.6793 33.4702 16.6979 33.4535 16.7236C33.3871 16.8254 33.3046 16.9519 32.1754 18.4872C31.8927 18.8717 31.7515 19.3724 31.7778 19.8974C31.8779 21.8925 31.6375 23.6976 31.0629 25.2623C30.5194 26.7427 29.6772 28.0128 28.56 29.0375C27.1774 30.3051 25.4146 31.1731 23.3201 31.6169C22.2926 31.8346 21.1893 31.9438 20.0474 31.9438Z" fill="white"/>
</svg>
